<svg width="32" height="32" viewBox="0 0 32 32" fill="none" xmlns="http://www.w3.org/2000/svg">
<path d="M16.0065 5.33716C24.1067 5.33716 30.6732 8.91888 30.6732 13.3371V18.6705C30.6732 23.0887 24.1067 26.6705 16.0065 26.6705C8.05099 26.6705 1.57486 23.2155 1.3461 18.9063L1.33984 18.6705V13.3371C1.33984 8.91888 7.90634 5.33716 16.0065 5.33716ZM16.0065 21.3371C11.0459 21.3371 6.6605 19.9938 4.00622 17.9378L4.00651 18.6705C4.00651 21.1801 9.18335 24.0038 16.0065 24.0038C22.6875 24.0038 27.7901 21.2965 27.9999 18.8277L28.0065 18.6705L28.0081 17.9367C25.354 19.9934 20.968 21.3371 16.0065 21.3371ZM16.0065 8.00382C9.18335 8.00382 4.00651 10.8276 4.00651 13.3371C4.00651 15.8467 9.18335 18.6705 16.0065 18.6705C22.8297 18.6705 28.0065 15.8467 28.0065 13.3371C28.0065 10.8276 22.8297 8.00382 16.0065 8.00382Z" fill="#ED3237"/>
</svg>
