<svg width="20" height="20" viewBox="0 0 20 20" fill="none" xmlns="http://www.w3.org/2000/svg">
<path d="M9.99992 1.73009L10.3793 1.92399C11.8507 2.67619 13.1107 3.78174 14.0477 5.12894C14.821 4.76168 15.649 4.4906 16.5161 4.33131L17.5 4.15059V10.8332C17.5 14.9752 14.1422 18.3333 10 18.3333C5.85787 18.3333 2.5 14.9754 2.5 10.8333V4.15059L3.48388 4.33131C4.35096 4.49059 5.17892 4.76165 5.95211 5.12887C6.88922 3.7817 8.14918 2.67617 9.62058 1.92399L9.99992 1.73009ZM7.39797 5.97086C8.42275 6.68871 9.30658 7.59388 10 8.637C10.6935 7.59393 11.5775 6.68868 12.6019 5.97095C11.9127 5.01328 11.0252 4.20769 9.99992 3.6145C8.97475 4.20766 8.08723 5.01322 7.39797 5.97086ZM9.08275 10.3615C8.3485 8.9335 7.21327 7.74433 5.82593 6.94354C5.30558 6.64319 4.74992 6.39755 4.16667 6.2144V10.8333C4.16667 13.5749 6.05801 15.8747 8.60708 16.4993C8.42808 15.7503 8.33333 14.9691 8.33333 14.1665C8.33333 12.8192 8.59983 11.5342 9.08275 10.3615ZM10.3776 16.6546C13.4233 16.46 15.8333 13.928 15.8333 10.8332V6.2144C15.25 6.39757 14.6943 6.64322 14.174 6.9436C11.6772 8.38475 10 11.0802 10 14.1665C10 15.0342 10.1323 15.8697 10.3776 16.6546Z" fill="#ED3237"/>
</svg>
