<svg width="20" height="20" viewBox="0 0 20 20" fill="none" xmlns="http://www.w3.org/2000/svg">
<path d="M7.08268 5.83333C7.08268 6.75381 6.33649 7.5 5.41601 7.5C4.49554 7.5 3.74935 6.75381 3.74935 5.83333C3.74935 4.91286 4.49554 4.16667 5.41601 4.16667C6.33649 4.16667 7.08268 4.91286 7.08268 5.83333ZM2.08268 5.83333C2.08268 7.67428 3.57507 9.16667 5.41601 9.16667C7.25696 9.16667 8.74935 7.67428 8.74935 5.83333C8.74935 3.99238 7.25696 2.5 5.41601 2.5C3.57507 2.5 2.08268 3.99238 2.08268 5.83333ZM7.49935 13.75C7.49935 12.5994 6.56661 11.6667 5.41601 11.6667C4.26542 11.6667 3.33268 12.5994 3.33268 13.75V15.8333H7.49935V13.75ZM9.16601 17.5H1.66602V13.75C1.66602 11.6789 3.34495 10 5.41601 10C7.48708 10 9.16601 11.6789 9.16601 13.75V17.5ZM16.2493 5.83333C16.2493 6.75381 15.5032 7.5 14.5827 7.5C13.6622 7.5 12.916 6.75381 12.916 5.83333C12.916 4.91286 13.6622 4.16667 14.5827 4.16667C15.5032 4.16667 16.2493 4.91286 16.2493 5.83333ZM11.2493 5.83333C11.2493 7.67428 12.7418 9.16667 14.5827 9.16667C16.4236 9.16667 17.916 7.67428 17.916 5.83333C17.916 3.99238 16.4236 2.5 14.5827 2.5C12.7418 2.5 11.2493 3.99238 11.2493 5.83333ZM16.666 13.75C16.666 12.5994 15.7333 11.6667 14.5827 11.6667C13.4321 11.6667 12.4993 12.5994 12.4993 13.75V15.8333H16.666V13.75ZM10.8327 15.8333V13.75C10.8327 11.6789 12.5116 10 14.5827 10C16.6538 10 18.3327 11.6789 18.3327 13.75V17.5H10.8327V15.8333Z" fill="#ED3237"/>
</svg>
