<svg width="20" height="20" viewBox="0 0 20 20" fill="none" xmlns="http://www.w3.org/2000/svg">
<path d="M4.16732 16.6667H15.834V18.3333H4.16732V16.6667ZM10.0006 15C6.31875 15 3.33398 12.0152 3.33398 8.33333C3.33398 4.65143 6.31875 1.66666 10.0006 1.66666C13.6826 1.66666 16.6673 4.65143 16.6673 8.33333C16.6673 12.0152 13.6826 15 10.0006 15ZM10.0006 13.3333C12.7621 13.3333 15.0006 11.0947 15.0006 8.33333C15.0006 5.57191 12.7621 3.33333 10.0006 3.33333C7.23922 3.33333 5.00065 5.57191 5.00065 8.33333C5.00065 11.0947 7.23922 13.3333 10.0006 13.3333Z" fill="#ED3237"/>
</svg>
