<svg width="56" height="56" viewBox="0 0 56 56" fill="none" xmlns="http://www.w3.org/2000/svg">
<rect width="56" height="56" rx="28" fill="#ED3237"/>
<g clip-path="url(#clip0_545_1211)">
<path d="M28.0049 20.0028C34.08 20.0028 39.0049 22.6891 39.0049 26.0028V30.0028C39.0049 33.3165 34.08 36.0028 28.0049 36.0028C22.0382 36.0028 17.1811 33.4116 17.0096 30.1797L17.0049 30.0028V26.0028C17.0049 22.6891 21.9298 20.0028 28.0049 20.0028ZM28.0049 32.0028C24.2844 32.0028 20.9954 30.9953 19.0047 29.4533L19.0049 30.0028C19.0049 31.885 22.8875 34.0028 28.0049 34.0028C33.0156 34.0028 36.8426 31.9723 36.9999 30.1207L37.0049 30.0028L37.0061 29.4525C35.0155 30.995 31.726 32.0028 28.0049 32.0028ZM28.0049 22.0028C22.8875 22.0028 19.0049 24.1206 19.0049 26.0028C19.0049 27.885 22.8875 30.0028 28.0049 30.0028C33.1223 30.0028 37.0049 27.885 37.0049 26.0028C37.0049 24.1206 33.1223 22.0028 28.0049 22.0028Z" fill="white"/>
</g>
<defs>
<clipPath id="clip0_545_1211">
<rect width="24" height="24" fill="white" transform="translate(16 16)"/>
</clipPath>
</defs>
</svg>
