<svg width="56" height="56" viewBox="0 0 56 56" fill="none" xmlns="http://www.w3.org/2000/svg">
<rect width="56" height="56" rx="28" fill="#ED3237"/>
<g clip-path="url(#clip0_545_1221)">
<g clip-path="url(#clip1_545_1221)">
<path d="M35.3788 31.1056C36.9258 27.442 35.5373 23.1143 32.0042 21.0744C29.4511 19.6004 26.4232 19.6936 24.0345 21.0555L23.0422 19.3187C26.028 17.6163 29.8128 17.4998 33.0042 19.3424C37.4949 21.9351 39.2139 27.4847 37.1217 32.1119L38.4635 32.8866L34.2984 35.1007L34.1334 30.3866L35.3788 31.1056ZM20.6296 24.8996C19.0826 28.5632 20.4712 32.891 24.0042 34.9308C26.5573 36.4048 29.5851 36.3117 31.9737 34.9498L32.9661 36.6866C29.9803 38.3889 26.1956 38.5054 23.0042 36.6629C18.5136 34.0702 16.7946 28.5205 18.8867 23.8934L17.5449 23.1187L21.71 20.9046L21.8751 25.6187L20.6296 24.8996ZM29.4184 30.831L26.59 28.0026L23.7616 30.831L22.3474 29.4168L26.59 25.1742L29.4184 28.0026L32.2469 25.1742L33.6611 26.5884L29.4184 30.831Z" fill="white"/>
</g>
</g>
<defs>
<clipPath id="clip0_545_1221">
<rect width="24" height="24" fill="white" transform="translate(16 16)"/>
</clipPath>
<clipPath id="clip1_545_1221">
<rect width="24" height="24" fill="white" transform="translate(16 16)"/>
</clipPath>
</defs>
</svg>
