<svg width="56" height="56" viewBox="0 0 56 56" fill="none" xmlns="http://www.w3.org/2000/svg">
<rect width="56" height="56" rx="28" fill="#ED3237"/>
<path d="M36.0049 22.9998V20.9998H20.0049V34.9998H36.0049V32.9998H28.0049C27.4526 32.9998 27.0049 32.5521 27.0049 31.9998V23.9998C27.0049 23.4475 27.4526 22.9998 28.0049 22.9998H36.0049ZM19.0049 18.9998H37.0049C37.5572 18.9998 38.0049 19.4475 38.0049 19.9998V35.9998C38.0049 36.5521 37.5572 36.9998 37.0049 36.9998H19.0049C18.4526 36.9998 18.0049 36.5521 18.0049 35.9998V19.9998C18.0049 19.4475 18.4526 18.9998 19.0049 18.9998ZM29.0049 24.9998V30.9998H36.0049V24.9998H29.0049ZM31.0049 26.9998H34.0049V28.9998H31.0049V26.9998Z" fill="white"/>
</svg>
