<svg width="56" height="56" viewBox="0 0 56 56" fill="none" xmlns="http://www.w3.org/2000/svg">
<circle cx="28" cy="28" r="28" fill="white" fill-opacity="0.04"/>
<path d="M28.001 25C26.3436 25 25.001 26.3431 25.001 28C25.001 29.6573 26.3441 31 28.001 31C29.6583 31 31.001 29.6569 31.001 28C31.001 26.3427 29.6579 25 28.001 25ZM28.001 23C30.7614 23 33.001 25.2371 33.001 28C33.001 30.7605 30.7639 33 28.001 33C25.2405 33 23.001 30.7629 23.001 28C23.001 25.2395 25.2381 23 28.001 23ZM34.501 22.7491C34.501 23.4393 33.9402 23.9992 33.251 23.9992C32.5609 23.9992 32.001 23.4384 32.001 22.7491C32.001 22.0599 32.5617 21.5 33.251 21.5C33.9393 21.4991 34.501 22.0599 34.501 22.7491ZM28.001 20C25.5265 20 25.1232 20.0065 23.9723 20.0578C23.1881 20.0946 22.6625 20.2001 22.1742 20.3897C21.7402 20.558 21.4271 20.759 21.0935 21.0925C20.7587 21.4274 20.558 21.7396 20.3904 22.1738C20.2004 22.6633 20.0949 23.1881 20.0588 23.9711C20.007 25.0752 20.001 25.4611 20.001 28C20.001 30.4745 20.0075 30.8778 20.0588 32.0286C20.0956 32.8124 20.2012 33.3388 20.3903 33.826C20.5591 34.2606 20.7605 34.5744 21.0925 34.9064C21.4286 35.2421 21.7418 35.4434 22.1719 35.6094C22.6662 35.8005 23.1915 35.9061 23.9721 35.9422C25.0762 35.9939 25.462 36 28.001 36C30.4755 36 30.8788 35.9934 32.0296 35.9422C32.8117 35.9055 33.3385 35.7996 33.827 35.6106C34.2604 35.4423 34.5752 35.2402 34.9074 34.9085C35.2436 34.5718 35.4445 34.2594 35.6107 33.8283C35.8013 33.3358 35.9071 32.8098 35.9432 32.0289C35.9949 30.9248 36.001 30.5389 36.001 28C36.001 25.5255 35.9944 25.1222 35.9432 23.9714C35.9064 23.1891 35.8005 22.6615 35.6113 22.1732C35.4434 21.7404 35.2417 21.4263 34.9084 21.0925C34.573 20.7571 34.2616 20.5569 33.8271 20.3894C33.338 20.1995 32.8124 20.094 32.0298 20.0578C30.9258 20.006 30.5399 20 28.001 20ZM28.001 18C30.7176 18 31.0568 18.01 32.1235 18.06C33.1876 18.1092 33.9135 18.2775 34.551 18.525C35.2101 18.7792 35.7668 19.1225 36.3226 19.6783C36.8776 20.2342 37.221 20.7925 37.476 21.45C37.7226 22.0867 37.891 22.8133 37.941 23.8775C37.9885 24.9442 38.001 25.2833 38.001 28C38.001 30.7167 37.991 31.0558 37.941 32.1225C37.8918 33.1867 37.7226 33.9125 37.476 34.55C37.2218 35.2092 36.8776 35.7658 36.3226 36.3217C35.7668 36.8767 35.2076 37.22 34.551 37.475C33.9135 37.7217 33.1876 37.89 32.1235 37.94C31.0568 37.9875 30.7176 38 28.001 38C25.2843 38 24.9451 37.99 23.8785 37.94C22.8143 37.8908 22.0893 37.7217 21.451 37.475C20.7926 37.2208 20.2351 36.8767 19.6793 36.3217C19.1235 35.7658 18.781 35.2067 18.526 34.55C18.2785 33.9125 18.111 33.1867 18.061 32.1225C18.0135 31.0558 18.001 30.7167 18.001 28C18.001 25.2833 18.011 24.9442 18.061 23.8775C18.1101 22.8125 18.2785 22.0875 18.526 21.45C18.7801 20.7917 19.1235 20.2342 19.6793 19.6783C20.2351 19.1225 20.7935 18.78 21.451 18.525C22.0885 18.2775 22.8135 18.11 23.8785 18.06C24.9451 18.0125 25.2843 18 28.001 18Z" fill="white"/>
</svg>
