<svg width="56" height="56" viewBox="0 0 56 56" fill="none" xmlns="http://www.w3.org/2000/svg">
<circle cx="28" cy="28" r="28" fill="white" fill-opacity="0.04"/>
<path d="M22.9405 20.9999C22.9401 21.8142 22.4461 22.547 21.6913 22.8527C20.9366 23.1584 20.0719 22.976 19.5049 22.3915C18.9379 21.807 18.7819 20.9371 19.1105 20.1921C19.4391 19.447 20.1865 18.9755 21.0005 18.9999C22.0815 19.0324 22.941 19.9184 22.9405 20.9999ZM23.0005 24.4799H19.0005V36.9999H23.0005V24.4799ZM29.3205 24.4799H25.3405V36.9999H29.2805V30.4299C29.2805 26.7699 34.0505 26.4299 34.0505 30.4299V36.9999H38.0005V29.0699C38.0005 22.8999 30.9405 23.1299 29.2805 26.1599L29.3205 24.4799Z" fill="white"/>
</svg>
