<svg width="86" height="24" viewBox="0 0 86 24" fill="none" xmlns="http://www.w3.org/2000/svg">
<path d="M0 23.52V0.48H4.352V19.456H14.272V23.52H0Z" fill="#898989"/>
<path d="M26.2555 24C23.9515 24 21.9622 23.4987 20.2875 22.496C18.6235 21.4933 17.3382 20.0907 16.4315 18.288C15.5355 16.4853 15.0875 14.3893 15.0875 12C15.0875 9.61067 15.5355 7.51467 16.4315 5.712C17.3382 3.90933 18.6235 2.50667 20.2875 1.504C21.9622 0.501333 23.9515 0 26.2555 0C28.5595 0 30.5435 0.501333 32.2075 1.504C33.8822 2.50667 35.1675 3.90933 36.0635 5.712C36.9702 7.51467 37.4235 9.61067 37.4235 12C37.4235 14.3893 36.9702 16.4853 36.0635 18.288C35.1675 20.0907 33.8822 21.4933 32.2075 22.496C30.5435 23.4987 28.5595 24 26.2555 24ZM26.2555 19.904C27.7168 19.9253 28.9328 19.6107 29.9035 18.96C30.8742 18.3093 31.5995 17.3867 32.0795 16.192C32.5702 14.9973 32.8155 13.6 32.8155 12C32.8155 10.4 32.5702 9.01333 32.0795 7.84C31.5995 6.66667 30.8742 5.75467 29.9035 5.104C28.9328 4.45333 27.7168 4.11733 26.2555 4.096C24.7942 4.07467 23.5782 4.38933 22.6075 5.04C21.6368 5.69067 20.9062 6.61333 20.4155 7.808C19.9355 9.00267 19.6955 10.4 19.6955 12C19.6955 13.6 19.9355 14.9867 20.4155 16.16C20.9062 17.3333 21.6368 18.2453 22.6075 18.896C23.5782 19.5467 24.7942 19.8827 26.2555 19.904Z" fill="#898989"/>
<path d="M50.2175 24C48.7668 24 47.3855 23.744 46.0735 23.232C44.7615 22.7093 43.5988 21.9413 42.5855 20.928C41.5828 19.9147 40.7882 18.6613 40.2015 17.168C39.6255 15.6747 39.3375 13.952 39.3375 12C39.3375 9.45067 39.8228 7.28533 40.7935 5.504C41.7748 3.712 43.0868 2.34667 44.7295 1.408C46.3828 0.469333 48.2122 0 50.2175 0C53.1828 0 55.5135 0.688 57.2095 2.064C58.9055 3.44 60.0415 5.38667 60.6175 7.904L56.1695 8.544C55.7535 7.2 55.0708 6.128 54.1215 5.328C53.1828 4.51733 51.9775 4.10667 50.5055 4.096C49.0442 4.07467 47.8282 4.38933 46.8575 5.04C45.8868 5.69067 45.1562 6.61333 44.6655 7.808C44.1855 9.00267 43.9455 10.4 43.9455 12C43.9455 13.6 44.1855 14.9867 44.6655 16.16C45.1562 17.3333 45.8868 18.2453 46.8575 18.896C47.8282 19.5467 49.0442 19.8827 50.5055 19.904C51.4975 19.9253 52.3935 19.7547 53.1935 19.392C54.0042 19.0293 54.6868 18.4587 55.2415 17.68C55.7962 16.9013 56.1908 15.904 56.4255 14.688H52.7775V11.328H61.0655C61.0868 11.4667 61.1028 11.712 61.1135 12.064C61.1242 12.416 61.1295 12.6187 61.1295 12.672C61.1295 14.88 60.6815 16.8373 59.7855 18.544C58.8895 20.2507 57.6255 21.5893 55.9935 22.56C54.3615 23.52 52.4362 24 50.2175 24Z" fill="#898989"/>
<path d="M74.2243 24C71.9203 24 69.9309 23.4987 68.2562 22.496C66.5922 21.4933 65.3069 20.0907 64.4003 18.288C63.5043 16.4853 63.0563 14.3893 63.0563 12C63.0563 9.61067 63.5043 7.51467 64.4003 5.712C65.3069 3.90933 66.5922 2.50667 68.2562 1.504C69.9309 0.501333 71.9203 0 74.2243 0C76.5283 0 78.5122 0.501333 80.1762 1.504C81.8509 2.50667 83.1362 3.90933 84.0322 5.712C84.9389 7.51467 85.3923 9.61067 85.3923 12C85.3923 14.3893 84.9389 16.4853 84.0322 18.288C83.1362 20.0907 81.8509 21.4933 80.1762 22.496C78.5122 23.4987 76.5283 24 74.2243 24ZM74.2243 19.904C75.6856 19.9253 76.9016 19.6107 77.8723 18.96C78.8429 18.3093 79.5682 17.3867 80.0482 16.192C80.5389 14.9973 80.7842 13.6 80.7842 12C80.7842 10.4 80.5389 9.01333 80.0482 7.84C79.5682 6.66667 78.8429 5.75467 77.8723 5.104C76.9016 4.45333 75.6856 4.11733 74.2243 4.096C72.7629 4.07467 71.5469 4.38933 70.5762 5.04C69.6056 5.69067 68.8749 6.61333 68.3842 7.808C67.9042 9.00267 67.6643 10.4 67.6643 12C67.6643 13.6 67.9042 14.9867 68.3842 16.16C68.8749 17.3333 69.6056 18.2453 70.5762 18.896C71.5469 19.5467 72.7629 19.8827 74.2243 19.904Z" fill="#898989"/>
</svg>
