<svg width="32" height="32" viewBox="0 0 32 32" fill="none" xmlns="http://www.w3.org/2000/svg">
<path d="M12.0003 3.27715V6.10877C8.09122 7.69113 5.33366 11.5236 5.33366 16.0001C5.33366 21.8911 10.1093 26.6667 16.0003 26.6667C20.4769 26.6667 24.3093 23.9091 25.8917 20.0001H28.7233C27.0242 25.4095 21.9705 29.3334 16.0003 29.3334C8.63653 29.3334 2.66699 23.3638 2.66699 16.0001C2.66699 10.0299 6.59085 4.97617 12.0003 3.27715ZM16.0003 2.66675C23.3641 2.66675 29.3337 8.63628 29.3337 16.0001C29.3337 16.4501 29.3114 16.8949 29.2678 17.3334H14.667V2.73259C15.1055 2.68904 15.5503 2.66675 16.0003 2.66675ZM17.3337 5.41593V14.6667H26.5845C25.9829 9.84179 22.1586 6.0176 17.3337 5.41593Z" fill="#ED3237"/>
</svg>
