<svg width="20" height="20" viewBox="0 0 20 20" fill="none" xmlns="http://www.w3.org/2000/svg">
<path d="M16.6699 5.83316V4.16649H3.33659V15.8332H16.6699V14.1665H10.0033C9.54302 14.1665 9.16994 13.7934 9.16994 13.3332V6.66649C9.16994 6.20625 9.54302 5.83316 10.0033 5.83316H16.6699ZM2.50326 2.49982H17.5033C17.9635 2.49982 18.3366 2.87292 18.3366 3.33316V16.6665C18.3366 17.1267 17.9635 17.4998 17.5033 17.4998H2.50326C2.04302 17.4998 1.66992 17.1267 1.66992 16.6665V3.33316C1.66992 2.87292 2.04302 2.49982 2.50326 2.49982ZM10.8366 7.49982V12.4998H16.6699V7.49982H10.8366ZM12.5033 9.1665H15.0033V10.8332H12.5033V9.1665Z" fill="#ED3237"/>
</svg>
