<svg width="20" height="20" viewBox="0 0 20 20" fill="none" xmlns="http://www.w3.org/2000/svg">
<path d="M4.17122 7.50234C4.63147 7.50234 5.00456 7.87543 5.00456 8.33566C6.36687 8.33566 7.62009 8.80267 8.61291 9.58525L10.4212 9.58567C11.5317 9.58567 12.5295 10.0684 13.2162 10.8354L15.8379 10.8357C17.4982 10.8357 18.9316 11.8067 19.6013 13.2118C17.6307 15.8123 14.4395 17.5023 10.8379 17.5023C8.51232 17.5023 6.54604 16.9997 4.95382 16.1207C4.83847 16.4403 4.53155 16.669 4.17122 16.669H1.67122C1.21099 16.669 0.837891 16.2959 0.837891 15.8357V8.33566C0.837891 7.87543 1.21099 7.50234 1.67122 7.50234H4.17122ZM5.0054 10.0023L5.00456 14.1873L5.04236 14.2144C6.53721 15.2647 8.48632 15.8357 10.8379 15.8357C13.3412 15.8357 15.6701 14.8727 17.3672 13.2278L17.4779 13.1165L17.3786 13.0328C16.9919 12.7303 16.5176 12.5427 16.0087 12.5081L15.8379 12.5023H14.0783C14.1392 12.7703 14.1712 13.0492 14.1712 13.3357V14.169H6.67122V12.5023L12.3296 12.5015L12.3009 12.4361C11.9838 11.7747 11.328 11.3067 10.5582 11.2567L10.4212 11.2523L7.98005 11.2522C7.22402 10.4811 6.17059 10.0026 5.0054 10.0023ZM3.33789 9.169H2.50456V15.0023H3.33789V9.169ZM15.0046 4.16901C16.3852 4.16901 17.5046 5.28829 17.5046 6.66901C17.5046 8.04971 16.3852 9.169 15.0046 9.169C13.6238 9.169 12.5046 8.04971 12.5046 6.66901C12.5046 5.28829 13.6238 4.16901 15.0046 4.16901ZM15.0046 5.83567C14.5443 5.83567 14.1712 6.20876 14.1712 6.66901C14.1712 7.12924 14.5443 7.50234 15.0046 7.50234C15.4648 7.50234 15.8379 7.12924 15.8379 6.66901C15.8379 6.20876 15.4648 5.83567 15.0046 5.83567ZM9.17124 1.66901C10.5519 1.66901 11.6712 2.78829 11.6712 4.16901C11.6712 5.54971 10.5519 6.66901 9.17124 6.66901C7.79052 6.66901 6.67122 5.54971 6.67122 4.16901C6.67122 2.78829 7.79052 1.66901 9.17124 1.66901ZM9.17124 3.33567C8.71099 3.33567 8.33791 3.70876 8.33791 4.16901C8.33791 4.62924 8.71099 5.00234 9.17124 5.00234C9.63149 5.00234 10.0046 4.62924 10.0046 4.16901C10.0046 3.70876 9.63149 3.33567 9.17124 3.33567Z" fill="#ED3237"/>
</svg>
