<svg width="56" height="56" viewBox="0 0 56 56" fill="none" xmlns="http://www.w3.org/2000/svg">
<circle cx="28" cy="28" r="28" fill="white" fill-opacity="0.04"/>
<path d="M23.2536 34.4944L23.9783 34.917C25.1891 35.623 26.5651 36 28.001 36C32.4193 36 36.001 32.4183 36.001 28C36.001 23.5817 32.4193 20 28.001 20C23.5827 20 20.001 23.5817 20.001 28C20.001 29.4363 20.3782 30.8128 21.0847 32.0238L21.507 32.7478L20.8535 35.1494L23.2536 34.4944ZM18.0052 38L19.3571 33.0315C18.4949 31.5536 18.001 29.8345 18.001 28C18.001 22.4771 22.4781 18 28.001 18C33.5238 18 38.001 22.4771 38.001 28C38.001 33.5228 33.5238 38 28.001 38C26.1671 38 24.4485 37.5064 22.9709 36.6447L18.0052 38ZM24.3923 23.3083C24.5262 23.2989 24.6605 23.2975 24.7946 23.304C24.8487 23.3076 24.9026 23.3138 24.9566 23.3201C25.1158 23.3385 25.291 23.4355 25.3499 23.5689C25.6482 24.2454 25.9376 24.9256 26.2182 25.6096C26.2801 25.7606 26.2428 25.9563 26.125 26.1457C26.0652 26.2428 25.9713 26.379 25.8625 26.5183C25.7494 26.663 25.506 26.9291 25.506 26.9291C25.506 26.9291 25.4074 27.0473 25.4445 27.1944C25.459 27.25 25.5052 27.331 25.5471 27.3991C25.5703 27.4368 25.5918 27.4705 25.6058 27.4938C25.8617 27.9211 26.2057 28.3543 26.6259 28.7616C26.7463 28.8783 26.8631 28.9974 26.9887 29.108C27.457 29.5209 27.9868 29.8583 28.559 30.1082L28.5641 30.1105C28.6486 30.1469 28.692 30.1668 28.8157 30.2193C28.8781 30.2457 28.9419 30.2685 29.0074 30.2858C29.0311 30.292 29.0554 30.2955 29.0798 30.2972C29.2415 30.3069 29.335 30.2032 29.3749 30.1555C30.0984 29.279 30.1646 29.2218 30.1696 29.2222V29.2238C30.2647 29.1236 30.4142 29.0888 30.5476 29.097C30.6085 29.1007 30.6691 29.1124 30.7245 29.1377C31.2563 29.3803 32.1258 29.7587 32.1258 29.7587L32.7073 30.0201C32.8047 30.0671 32.8936 30.1778 32.8979 30.2854C32.9005 30.3523 32.9077 30.4603 32.8838 30.6579C32.8525 30.9166 32.7738 31.2281 32.6956 31.3913C32.6406 31.5058 32.5694 31.6074 32.4866 31.6934C32.3743 31.81 32.2909 31.8808 32.1559 31.9814C32.0737 32.0426 32.0311 32.0714 32.0311 32.0714C31.8922 32.159 31.8139 32.2028 31.6484 32.2909C31.391 32.428 31.1066 32.5068 30.8153 32.5218C30.6296 32.5313 30.4444 32.5447 30.2589 32.5347C30.2507 32.5342 29.6907 32.4482 29.6907 32.4482C28.2688 32.0742 26.9538 31.3736 25.8503 30.402C25.6247 30.2034 25.4155 29.9885 25.2019 29.7759C24.3129 28.8908 23.6398 27.9364 23.2317 27.0336C23.0304 26.5884 22.903 26.1116 22.901 25.621C22.8973 25.0141 23.096 24.4232 23.4657 23.9419C23.5386 23.847 23.6077 23.7485 23.7271 23.6359C23.8535 23.5165 23.9339 23.4524 24.0206 23.4081C24.1361 23.349 24.2629 23.3174 24.3923 23.3083Z" fill="white"/>
</svg>
