<svg width="16" height="16" viewBox="0 0 16 16" fill="none" xmlns="http://www.w3.org/2000/svg">
<path d="M2.66732 8.00004C2.66732 5.05452 5.05513 2.66671 8.00065 2.66671C10.9462 2.66671 13.334 5.05452 13.334 8.00004C13.334 10.9456 10.9462 13.3334 8.00065 13.3334C5.05513 13.3334 2.66732 10.9456 2.66732 8.00004ZM8.00065 1.33337C4.31875 1.33337 1.33398 4.31814 1.33398 8.00004C1.33398 11.6819 4.31875 14.6667 8.00065 14.6667C11.6825 14.6667 14.6673 11.6819 14.6673 8.00004C14.6673 4.31814 11.6825 1.33337 8.00065 1.33337ZM11.6387 6.30478L10.6959 5.36197L7.33398 8.72391L5.47206 6.86197L4.52924 7.80477L7.33398 10.6095L11.6387 6.30478Z" fill="#ED3237"/>
</svg>
