<svg width="64" height="64" viewBox="0 0 64 64" fill="none" xmlns="http://www.w3.org/2000/svg">
<path d="M32.0026 58.6667C17.275 58.6667 5.33594 46.7275 5.33594 32C5.33594 17.2724 17.275 5.33337 32.0026 5.33337C46.7301 5.33337 58.6693 17.2724 58.6693 32C58.6693 46.7275 46.7301 58.6667 32.0026 58.6667ZM25.896 52.4464C23.3291 47.0024 21.7555 40.9979 21.4088 34.6667H10.8343C11.8906 43.1374 17.913 50.0659 25.896 52.4464ZM26.7511 34.6667C27.1522 41.1702 29.0101 47.2792 32.0026 52.672C34.9951 47.2792 36.853 41.1702 37.2541 34.6667H26.7511ZM53.1709 34.6667H42.5965C42.2498 40.9979 40.6762 47.0024 38.1093 52.4464C46.0922 50.0659 52.1146 43.1374 53.1709 34.6667ZM10.8343 29.3334H21.4088C21.7555 23.0021 23.3291 16.9976 25.896 11.5535C17.913 13.9343 11.8906 20.8627 10.8343 29.3334ZM26.7511 29.3334H37.2541C36.853 22.83 34.9951 16.7207 32.0026 11.328C29.0101 16.7207 27.1522 22.83 26.7511 29.3334ZM38.1093 11.5535C40.6762 16.9976 42.2498 23.0021 42.5965 29.3334H53.1709C52.1146 20.8627 46.0922 13.9343 38.1093 11.5535Z" fill="url(#paint0_linear_2087_1850)"/>
<defs>
<linearGradient id="paint0_linear_2087_1850" x1="5.00195" y1="32" x2="59.002" y2="32" gradientUnits="userSpaceOnUse">
<stop stop-color="white"/>
<stop offset="1" stop-color="#151E30" stop-opacity="0"/>
</linearGradient>
</defs>
</svg>
