<svg width="64" height="64" viewBox="0 0 64 64" fill="none" xmlns="http://www.w3.org/2000/svg">
<path d="M32 58.6668C17.2724 58.6668 5.33331 46.7276 5.33331 32.0002C5.33331 17.2726 17.2724 5.3335 32 5.3335C46.7274 5.3335 58.6666 17.2726 58.6666 32.0002C58.6666 46.7276 46.7274 58.6668 32 58.6668ZM25.8934 52.4466C23.3265 47.0026 21.7528 40.998 21.4061 34.6668H10.8317C11.888 43.1375 17.9104 50.066 25.8934 52.4466ZM26.7485 34.6668C27.1496 41.1703 29.0074 47.2794 32 52.6722C34.9925 47.2794 36.8504 41.1703 37.2514 34.6668H26.7485ZM53.1682 34.6668H42.5938C42.2472 40.998 40.6736 47.0026 38.1066 52.4466C46.0896 50.066 52.112 43.1375 53.1682 34.6668ZM10.8317 29.3335H21.4061C21.7528 23.0022 23.3265 16.9977 25.8934 11.5537C17.9104 13.9344 11.888 20.8628 10.8317 29.3335ZM26.7485 29.3335H37.2514C36.8504 22.8301 34.9925 16.7208 32 11.3281C29.0074 16.7208 27.1496 22.8301 26.7485 29.3335ZM38.1066 11.5537C40.6736 16.9977 42.2472 23.0022 42.5938 29.3335H53.1682C52.112 20.8628 46.0896 13.9344 38.1066 11.5537Z" fill="url(#paint0_linear_192_1829)"/>
<defs>
<linearGradient id="paint0_linear_192_1829" x1="32" y1="5.3335" x2="32" y2="58.6668" gradientUnits="userSpaceOnUse">
<stop stop-color="#7E7E7E"/>
<stop offset="1" stop-color="white" stop-opacity="0"/>
</linearGradient>
</defs>
</svg>
