<svg width="3334" height="891" viewBox="0 0 3334 891" fill="none" xmlns="http://www.w3.org/2000/svg">
<g opacity="0.08">
<path d="M531.107 452.932C531.107 452.932 879.297 -145.788 1269.31 281.642C1659.32 709.072 1723.25 235.382 2010.16 38.4416C2297.07 -158.498 2560.53 482.322 2783.31 365.442C3006.09 248.562 2883.31 11.5316 3079.5 28.2616" stroke="url(#paint0_linear_399_1204)" stroke-width="1.12" stroke-miterlimit="10"/>
<path d="M3083.08 31.9016C2889.69 15.4016 3001.43 260.602 2775.25 369.582C2549.07 478.562 2287.25 -146.678 1999.18 50.0616C1711.11 246.802 1646.59 702.282 1258.07 282.372C869.547 -137.538 527.068 457.002 523.628 456.642" stroke="url(#paint1_linear_399_1204)" stroke-width="1.13" stroke-miterlimit="10"/>
<path d="M3086.65 35.5516C2896.03 19.2916 2996.76 272.682 2767.18 373.742C2537.6 474.802 2277.4 -134.868 1988.18 61.6816C1698.96 258.232 1633.85 695.492 1246.82 283.102C859.788 -129.288 523.018 461.102 516.148 460.342" stroke="url(#paint2_linear_399_1204)" stroke-width="1.13" stroke-miterlimit="10"/>
<path d="M3090.23 39.2016C2902.37 23.2016 2992.09 284.752 2759.11 377.912C2526.13 471.072 2267.57 -123.088 1977.21 73.3016C1686.85 269.692 1621.11 688.702 1235.57 283.832C850.027 -121.038 518.977 465.142 508.667 464.052" stroke="url(#paint3_linear_399_1204)" stroke-width="1.14" stroke-miterlimit="10"/>
<path d="M3093.8 42.8316C2908.71 27.0416 2987.42 296.832 2751.05 382.042C2514.68 467.252 2257.73 -111.278 1966.23 84.8916C1674.73 281.062 1608.37 681.892 1224.33 284.542C840.288 -112.808 514.908 469.212 501.188 467.752" stroke="url(#paint4_linear_399_1204)" stroke-width="1.14" stroke-miterlimit="10"/>
<path d="M3097.38 46.5116C2915.04 30.9516 2982.75 308.912 2742.98 386.232C2503.21 463.552 2247.91 -99.4384 1955.25 96.5416C1662.59 292.522 1595.64 675.132 1213.08 285.302C830.518 -104.528 510.908 473.282 493.708 471.462" stroke="url(#paint5_linear_399_1204)" stroke-width="1.15" stroke-miterlimit="10"/>
<path d="M3100.91 50.1617C2921.38 34.8317 2978.09 320.992 2734.91 390.392C2491.73 459.792 2238.06 -87.6083 1944.26 108.162C1650.46 303.932 1582.91 668.342 1201.83 286.032C820.748 -96.2783 506.828 477.352 486.228 475.172" stroke="url(#paint6_linear_399_1204)" stroke-width="1.15" stroke-miterlimit="10"/>
<path d="M3104.53 53.8317C2927.72 38.7517 2973.42 333.082 2726.85 394.572C2480.28 456.062 2228.23 -75.7983 1933.28 119.792C1638.33 315.382 1570.16 661.572 1190.59 286.792C811.017 -87.9883 502.797 481.422 478.747 478.832" stroke="url(#paint7_linear_399_1204)" stroke-width="1.16" stroke-miterlimit="10"/>
<path d="M3108.1 57.4716C2934.1 42.6216 2968.75 345.142 2718.78 398.712C2468.81 452.282 2218.4 -64.0084 1922.3 131.392C1626.2 326.792 1557.42 654.772 1179.3 287.492C801.178 -79.7884 498.748 485.492 471.268 482.582" stroke="url(#paint8_linear_399_1204)" stroke-width="1.16" stroke-miterlimit="10"/>
<path d="M3111.68 61.1217C2940.4 46.5117 2964.08 357.222 2710.68 402.882C2457.28 448.542 2208.56 -52.1683 1911.32 143.012C1614.08 338.192 1544.69 648.012 1168.09 288.222C791.487 -71.5683 494.707 489.562 463.797 486.292" stroke="url(#paint9_linear_399_1204)" stroke-width="1.17" stroke-miterlimit="10"/>
<path d="M3115.25 64.7717C2946.73 50.4017 2959.41 369.292 2702.65 407.042C2445.89 444.792 2198.73 -40.3983 1900.34 154.632C1601.95 349.662 1531.91 641.192 1156.85 288.952C781.788 -63.2883 490.658 493.632 456.318 489.992" stroke="url(#paint10_linear_399_1204)" stroke-width="1.17" stroke-miterlimit="10"/>
<path d="M3118.83 68.4216C2953.07 54.2816 2954.74 381.422 2694.58 411.202C2434.42 440.982 2188.91 -28.5884 1889.35 166.252C1589.79 361.092 1519.21 634.402 1145.6 289.682C771.988 -55.0385 486.598 497.682 448.838 493.682" stroke="url(#paint11_linear_399_1204)" stroke-width="1.18" stroke-miterlimit="10"/>
<path d="M3122.4 72.0816C2959.4 58.1716 2950.07 393.452 2686.52 415.362C2422.97 437.272 2179.06 -16.7784 1878.37 177.832C1577.68 372.442 1506.48 627.582 1134.37 290.382C762.258 -46.8184 482.587 501.732 441.367 497.382" stroke="url(#paint12_linear_399_1204)" stroke-width="1.18" stroke-miterlimit="10"/>
<path d="M3125.98 75.7316C2965.75 62.0616 2945.4 405.532 2678.45 419.522C2411.5 433.512 2169.23 -4.96839 1867.39 189.522C1565.55 384.012 1493.74 620.832 1123.11 291.152C752.477 -38.5284 478.527 505.832 433.907 501.112" stroke="url(#paint13_linear_399_1204)" stroke-width="1.19" stroke-miterlimit="10"/>
<path d="M3129.55 79.3815C2972.08 65.9515 2940.73 417.602 2670.38 423.682C2400.03 429.762 2159.38 6.84155 1856.38 201.102C1553.38 395.362 1481 614.042 1111.91 291.882C742.817 -30.2785 474.487 509.912 426.397 504.832" stroke="url(#paint14_linear_399_1204)" stroke-width="1.19" stroke-miterlimit="10"/>
<path d="M3133.13 83.0316C2978.42 69.8316 2936.06 429.682 2662.32 427.832C2388.58 425.982 2149.56 18.6316 1845.43 212.702C1541.3 406.772 1468.26 607.252 1100.61 292.612C732.957 -22.0284 470.437 513.982 418.907 508.522" stroke="url(#paint15_linear_399_1204)" stroke-width="1.2" stroke-miterlimit="10"/>
<path d="M3136.7 86.6916C2984.76 73.6916 2931.39 441.762 2654.25 432.012C2377.11 422.262 2139.73 30.4616 1834.44 224.342C1529.15 418.222 1455.53 600.472 1089.36 293.342C723.187 -13.7884 466.397 518.052 411.438 512.232" stroke="url(#paint16_linear_399_1204)" stroke-width="1.2" stroke-miterlimit="10"/>
<path d="M3140.28 90.3416C2991.1 77.6116 2926.73 453.842 2646.18 436.172C2365.63 418.502 2129.91 42.2716 1823.46 235.962C1517.01 429.652 1442.79 593.682 1078.12 294.072C713.448 -5.53838 462.348 522.122 403.958 515.942" stroke="url(#paint17_linear_399_1204)" stroke-width="1.21" stroke-miterlimit="10"/>
<path d="M3143.85 93.9916C2997.43 81.5016 2922.06 465.912 2638.12 440.332C2354.18 414.752 2120.06 54.0816 1812.48 247.582C1504.9 441.082 1430.05 586.892 1066.91 294.832C703.768 2.77161 458.308 526.192 396.478 519.642" stroke="url(#paint18_linear_399_1204)" stroke-width="1.21" stroke-miterlimit="10"/>
<path d="M3147.43 97.6417C3003.77 85.3917 2917.43 477.992 2630.05 444.492C2342.67 410.992 2110.22 65.8916 1801.5 259.192C1492.78 452.492 1417.32 580.102 1055.62 295.542C693.917 10.9817 454.257 530.262 388.997 523.352" stroke="url(#paint19_linear_399_1204)" stroke-width="1.22" stroke-miterlimit="10"/>
<path d="M3151.01 101.302C3010.11 89.3016 2912.72 490.072 2622.01 448.652C2331.3 407.232 2100.39 77.7016 1790.51 270.832C1480.63 463.962 1404.58 573.322 1044.38 296.272C684.177 19.2216 450.218 534.332 381.518 527.052" stroke="url(#paint20_linear_399_1204)" stroke-width="1.22" stroke-miterlimit="10"/>
<path d="M3154.58 104.952C3016.45 93.1716 2908.05 502.142 2613.91 452.832C2319.77 403.522 2090.56 89.5116 1779.53 282.432C1468.5 475.352 1391.84 566.532 1033.13 297.002C674.417 27.4716 446.127 538.402 374.037 530.762" stroke="url(#paint21_linear_399_1204)" stroke-width="1.23" stroke-miterlimit="10"/>
<path d="M3158.16 108.602C3022.79 97.0517 2903.38 514.222 2605.85 456.982C2308.32 399.742 2080.72 101.322 1768.55 294.052C1456.38 486.782 1379.1 559.742 1021.91 297.732C664.718 35.7217 442.128 542.472 366.568 534.472" stroke="url(#paint22_linear_399_1204)" stroke-width="1.23" stroke-miterlimit="10"/>
<path d="M3161.73 112.252C3029.12 100.942 2898.73 526.302 2597.73 461.142C2296.73 395.982 2070.84 113.142 1757.52 305.672C1444.2 498.202 1366.32 552.952 1010.59 298.462C654.858 43.9716 438.088 546.542 359.088 538.172" stroke="url(#paint23_linear_399_1204)" stroke-width="1.24" stroke-miterlimit="10"/>
<path d="M3165.31 115.912C3035.46 104.832 2894.04 538.382 2589.72 465.302C2285.4 392.222 2061.05 124.932 1746.59 317.302C1432.13 509.672 1353.59 546.182 999.388 299.202C645.188 52.2216 434.038 550.612 351.608 541.882" stroke="url(#paint24_linear_399_1204)" stroke-width="1.24" stroke-miterlimit="10"/>
<path d="M3168.91 119.562C3041.83 108.722 2889.4 550.452 2581.68 469.462C2273.96 388.472 2051.25 136.742 1735.68 328.912C1420.11 521.082 1340.91 539.382 988.138 299.922C635.368 60.4616 429.998 554.682 344.128 545.592" stroke="url(#paint25_linear_399_1204)" stroke-width="1.25" stroke-miterlimit="10"/>
<path d="M3172.46 123.212C3048.14 112.612 2884.7 562.532 2573.58 473.622C2262.46 384.712 2041.39 148.552 1724.58 340.522C1407.77 532.492 1328.15 532.592 976.907 300.662C625.667 68.7317 425.907 558.752 336.647 549.292" stroke="url(#paint26_linear_399_1204)" stroke-width="1.25" stroke-miterlimit="10"/>
<path d="M3176.03 126.832C3054.47 116.472 2880.03 574.582 2565.52 477.762C2251.01 380.942 2031.52 160.332 1713.64 352.112C1395.76 543.892 1315.42 525.832 965.647 301.392C615.877 76.9516 421.907 562.832 329.167 553.002" stroke="url(#paint27_linear_399_1204)" stroke-width="1.26" stroke-miterlimit="10"/>
<path d="M3179.61 130.522C3060.81 120.382 2875.36 586.692 2557.45 481.952C2239.54 377.212 2021.72 172.172 1702.66 363.762C1383.6 555.352 1302.66 519.022 954.397 302.122C606.137 85.2216 417.908 566.892 321.688 556.702" stroke="url(#paint28_linear_399_1204)" stroke-width="1.26" stroke-miterlimit="10"/>
<path d="M3183.18 134.172C3067.18 124.272 2870.7 598.762 2549.38 486.112C2228.06 373.462 2011.91 183.982 1691.67 375.382C1371.43 566.782 1289.91 512.232 943.158 302.832C596.408 93.4316 413.818 570.962 314.208 560.412" stroke="url(#paint29_linear_399_1204)" stroke-width="1.27" stroke-miterlimit="10"/>
<path d="M3186.76 137.832C3073.49 128.172 2866.03 610.832 2541.32 490.282C2216.61 369.732 2002.05 195.832 1680.69 387.002C1359.33 578.172 1277.21 505.442 931.908 303.582C586.608 101.722 409.768 575.032 306.728 564.122" stroke="url(#paint30_linear_399_1204)" stroke-width="1.27" stroke-miterlimit="10"/>
<path d="M3190.33 141.472C3079.82 132.052 2861.33 622.922 2533.25 494.472C2205.17 366.022 1992.25 207.642 1669.71 398.662C1347.17 589.682 1264.47 498.662 920.707 304.352C576.947 110.042 405.728 579.102 299.247 567.832" stroke="url(#paint31_linear_399_1204)" stroke-width="1.28" stroke-miterlimit="10"/>
<path d="M3193.91 145.132C3086.16 135.942 2856.69 634.992 2525.18 498.592C2193.67 362.192 1982.38 219.412 1658.73 410.232C1335.08 601.052 1251.73 491.832 909.418 305.042C567.108 118.252 401.678 583.172 291.768 571.532" stroke="url(#paint32_linear_399_1204)" stroke-width="1.28" stroke-miterlimit="10"/>
<path d="M3197.48 148.832C3092.48 139.832 2852.02 647.122 2517.12 502.832C2182.22 358.542 1972.55 231.222 1647.74 421.832C1322.93 612.442 1238.99 485.082 898.167 305.832C557.347 126.582 397.637 587.242 284.287 575.242" stroke="url(#paint33_linear_399_1204)" stroke-width="1.29" stroke-miterlimit="10"/>
<path d="M3201.06 152.432C3098.84 143.712 2847.35 659.152 2509.06 506.922C2170.77 354.692 1962.71 243.032 1636.76 433.472C1310.81 623.912 1226.26 478.292 886.917 306.472C547.577 134.652 393.597 591.312 276.807 578.942" stroke="url(#paint34_linear_399_1204)" stroke-width="1.29" stroke-miterlimit="10"/>
<path d="M3204.63 156.082C3105.18 147.602 2842.68 671.232 2500.98 511.082C2159.28 350.932 1952.88 254.842 1625.78 445.082C1298.68 635.322 1213.52 471.492 875.677 307.232C537.837 142.972 389.548 595.382 269.328 582.652" stroke="url(#paint35_linear_399_1204)" stroke-width="1.3" stroke-miterlimit="10"/>
<path d="M3208.21 159.742C3111.51 151.492 2838.01 683.302 2492.92 515.242C2147.83 347.182 1943.05 266.642 1614.8 456.712C1286.55 646.782 1200.8 464.712 864.427 307.972C528.057 151.232 385.507 599.452 261.907 586.352" stroke="url(#paint36_linear_399_1204)" stroke-width="1.3" stroke-miterlimit="10"/>
<path d="M3211.78 163.392C3117.85 155.392 2833.34 695.392 2484.85 519.392C2136.36 343.392 1933.21 278.392 1603.85 468.322C1274.49 658.252 1188.04 457.932 853.177 308.702C518.318 159.472 381.458 603.522 254.378 590.062" stroke="url(#paint37_linear_399_1204)" stroke-width="1.31" stroke-miterlimit="10"/>
<path d="M3215.36 167.042C3124.19 159.272 2828.67 707.462 2476.78 523.562C2124.89 339.662 1923.38 290.262 1592.83 479.942C1262.28 669.622 1175.31 451.142 841.907 309.432C508.507 167.722 377.417 607.592 246.907 593.772" stroke="url(#paint38_linear_399_1204)" stroke-width="1.31" stroke-miterlimit="10"/>
<path d="M3218.91 170.702C3130.51 163.152 2823.98 719.542 2468.7 527.702C2113.42 335.862 1913.52 302.042 1581.83 491.532C1250.14 681.022 1162.55 444.322 830.667 310.132C498.787 175.942 373.367 611.662 239.417 597.472" stroke="url(#paint39_linear_399_1204)" stroke-width="1.31" stroke-miterlimit="10"/>
<path d="M3222.51 174.352C3136.86 167.042 2819.34 731.612 2460.65 531.892C2101.96 332.172 1903.71 313.892 1570.87 503.182C1238.03 692.472 1149.87 437.572 819.438 310.902C489.008 184.232 369.327 615.732 231.907 601.182" stroke="url(#paint40_linear_399_1204)" stroke-width="1.32" stroke-miterlimit="10"/>
<path d="M3226.08 178.002C3143.2 170.932 2814.67 743.692 2452.58 536.052C2090.49 328.412 1893.91 325.692 1559.91 514.832C1225.91 703.972 1137.1 430.832 808.198 311.632C479.298 192.432 365.278 619.832 224.458 604.882" stroke="url(#paint41_linear_399_1204)" stroke-width="1.32" stroke-miterlimit="10"/>
<path d="M3229.66 181.652C3149.54 174.822 2810 755.772 2444.52 540.212C2079.04 324.652 1884.04 337.502 1548.91 526.422C1213.78 715.342 1124.36 423.992 796.908 312.362C469.458 200.732 361.238 623.832 216.978 608.592" stroke="url(#paint42_linear_399_1204)" stroke-width="1.33" stroke-miterlimit="10"/>
<path d="M3233.23 185.312C3155.88 178.712 2805.33 767.842 2436.45 544.372C2067.57 320.902 1874.21 349.312 1537.91 538.042C1201.61 726.772 1111.61 417.202 785.688 313.042C459.767 208.882 357.187 627.892 209.487 612.252" stroke="url(#paint43_linear_399_1204)" stroke-width="1.33" stroke-miterlimit="10"/>
<path d="M3236.81 188.962C3162.21 182.602 2800.66 779.962 2428.39 548.532C2056.12 317.102 1864.39 361.122 1526.94 549.662C1189.49 738.202 1098.91 410.422 774.458 313.832C450.008 217.242 353.148 632.012 202.018 616.002" stroke="url(#paint44_linear_399_1204)" stroke-width="1.34" stroke-miterlimit="10"/>
<path d="M3240.38 192.612C3168.55 186.482 2795.99 792.002 2420.32 552.702C2044.65 313.402 1854.54 372.932 1515.96 561.272C1177.38 749.612 1086.15 403.632 763.207 314.552C440.267 225.472 349.107 636.082 194.537 619.712" stroke="url(#paint45_linear_399_1204)" stroke-width="1.34" stroke-miterlimit="10"/>
<path d="M3243.96 196.262C3174.89 190.372 2791.32 804.082 2412.25 556.862C2033.18 309.642 1844.71 384.742 1504.97 572.862C1165.23 760.982 1073.41 396.862 751.968 315.252C430.528 233.642 345.068 640.122 187.068 623.392" stroke="url(#paint46_linear_399_1204)" stroke-width="1.35" stroke-miterlimit="10"/>
<path d="M3247.53 199.922C3181.23 194.262 2786.65 816.152 2404.19 561.022C2021.73 305.892 1834.91 396.552 1493.99 584.512C1153.07 772.472 1060.67 390.052 740.708 316.022C420.748 241.992 341.018 644.222 179.578 627.122" stroke="url(#paint47_linear_399_1204)" stroke-width="1.35" stroke-miterlimit="10"/>
<path d="M3251.11 203.572C3187.57 198.152 2781.98 828.232 2396.11 565.182C2010.24 302.132 1825.04 408.362 1483.01 596.132C1140.98 783.902 1047.91 383.262 729.468 316.752C411.028 250.242 336.968 648.292 172.098 630.832" stroke="url(#paint48_linear_399_1204)" stroke-width="1.36" stroke-miterlimit="10"/>
<path d="M3254.68 207.222C3193.9 202.042 2777.31 840.312 2388.05 569.342C1998.79 298.372 1815.2 420.172 1472.05 607.752C1128.9 795.332 1035.2 376.482 718.217 317.482C401.237 258.482 332.908 652.362 164.628 634.532" stroke="url(#paint49_linear_399_1204)" stroke-width="1.36" stroke-miterlimit="10"/>
<path d="M3258.26 210.832C3200.26 205.832 2772.64 852.352 2379.99 573.462C1987.34 294.572 1805.37 431.932 1461.05 619.332C1116.73 806.732 1022.46 369.692 706.968 318.212C391.478 266.732 328.908 656.432 157.148 638.242" stroke="url(#paint50_linear_399_1204)" stroke-width="1.37" stroke-miterlimit="10"/>
<path d="M3261.83 214.532C3206.58 209.832 2767.98 864.462 2371.91 577.672C1975.84 290.882 1795.54 443.832 1450.06 630.982C1104.58 818.132 1009.72 362.902 695.727 318.982C381.737 275.062 324.837 660.542 149.667 641.982" stroke="url(#paint51_linear_399_1204)" stroke-width="1.37" stroke-miterlimit="10"/>
<path d="M3265.41 218.182C3212.91 213.702 2763.31 876.542 2363.85 581.832C1964.39 287.122 1785.7 455.592 1439.08 642.602C1092.46 829.612 996.988 356.112 684.478 319.672C371.968 283.232 320.798 664.572 142.188 645.672" stroke="url(#paint52_linear_399_1204)" stroke-width="1.38" stroke-miterlimit="10"/>
<path d="M3268.98 221.832C3219.25 217.592 2758.64 888.622 2355.79 585.992C1952.94 283.362 1775.91 467.402 1428.1 654.222C1080.29 841.042 984.248 349.332 673.228 320.402C362.208 291.472 316.748 668.642 134.708 649.402" stroke="url(#paint53_linear_399_1204)" stroke-width="1.38" stroke-miterlimit="10"/>
<path d="M3272.56 225.482C3225.56 221.482 2753.97 900.692 2347.72 590.152C1941.47 279.612 1766.03 479.212 1417.12 665.832C1068.21 852.452 971.508 342.542 661.988 321.132C352.468 299.722 312.708 672.712 127.228 653.072" stroke="url(#paint54_linear_399_1204)" stroke-width="1.39" stroke-miterlimit="10"/>
<path d="M3276.13 229.142C3231.93 225.372 2749.3 912.772 2339.65 594.312C1930 275.852 1756.2 491.022 1406.13 677.462C1056.06 863.902 958.767 335.752 650.737 321.832C342.707 307.912 308.658 676.832 119.747 656.772" stroke="url(#paint55_linear_399_1204)" stroke-width="1.39" stroke-miterlimit="10"/>
<path d="M3279.71 232.832C3238.27 229.292 2744.63 924.892 2331.59 598.512C1918.55 272.132 1746.37 502.832 1395.15 689.082C1043.93 875.332 946.037 328.962 639.487 322.602C332.938 316.242 304.617 680.832 112.267 660.482" stroke="url(#paint56_linear_399_1204)" stroke-width="1.4" stroke-miterlimit="10"/>
<path d="M3283.28 236.442C3244.6 233.142 2739.96 936.932 2323.52 602.632C1907.08 268.332 1736.52 514.632 1384.17 700.692C1031.82 886.752 933.297 322.182 628.247 323.332C323.197 324.482 300.567 684.922 104.787 664.182" stroke="url(#paint57_linear_399_1204)" stroke-width="1.4" stroke-miterlimit="10"/>
<path d="M3286.91 240.092C3250.91 237.032 2735.29 949.002 2315.45 606.832C1895.61 264.662 1726.7 526.482 1373.19 712.342C1019.68 898.202 920.557 315.392 616.997 324.062C313.438 332.732 296.527 688.992 97.3075 667.892" stroke="url(#paint58_linear_399_1204)" stroke-width="1.41" stroke-miterlimit="10"/>
<path d="M3290.43 243.752C3257.28 240.922 2730.62 961.082 2307.43 610.962C1884.24 260.842 1716.91 538.262 1362.24 723.962C1007.57 909.662 907.827 308.602 605.747 324.832C303.668 341.062 292.478 693.062 89.8275 671.602" stroke="url(#paint59_linear_399_1204)" stroke-width="1.41" stroke-miterlimit="10"/>
<path d="M3294.01 247.402C3263.62 244.832 2725.91 973.162 2299.32 615.122C1872.73 257.082 1707.03 550.122 1351.22 735.552C995.408 920.982 895.088 301.832 594.508 325.522C293.928 349.212 288.438 697.132 82.3475 675.302" stroke="url(#paint60_linear_399_1204)" stroke-width="1.42" stroke-miterlimit="10"/>
<path d="M3297.58 251.052C3269.96 248.702 2721.28 985.232 2291.25 619.282C1861.22 253.332 1697.25 561.882 1340.25 747.172C983.248 932.462 882.357 295.032 583.247 326.252C284.137 357.472 284.387 701.202 74.9075 679.012" stroke="url(#paint61_linear_399_1204)" stroke-width="1.42" stroke-miterlimit="10"/>
<path d="M3301.16 254.702C3276.29 252.582 2716.61 997.312 2283.16 623.442C1849.71 249.572 1687.36 573.692 1329.26 758.832C971.157 943.972 869.607 288.242 572.007 326.992C274.407 365.742 280.347 705.272 67.3975 682.722" stroke="url(#paint62_linear_399_1204)" stroke-width="1.43" stroke-miterlimit="10"/>
<path d="M3304.73 258.362C3282.63 256.472 2711.95 1009.36 2275.12 627.602C1838.29 245.842 1677.53 585.492 1318.28 770.412C959.027 955.332 856.907 281.452 560.767 327.722C264.627 373.992 276.307 709.342 59.9075 686.422" stroke="url(#paint63_linear_399_1204)" stroke-width="1.43" stroke-miterlimit="10"/>
<path d="M3308.31 262.012C3288.97 260.362 2707.31 1021.47 2267.05 631.772C1826.79 242.072 1667.7 597.302 1307.29 782.022C946.877 966.742 844.138 274.662 549.518 328.452C254.898 382.242 272.258 713.452 52.4375 690.132" stroke="url(#paint64_linear_399_1204)" stroke-width="1.44" stroke-miterlimit="10"/>
<path d="M3311.91 265.662C3295.34 264.252 2702.64 1033.54 2259.02 635.932C1815.4 238.322 1657.91 609.112 1296.31 793.642C934.708 978.172 831.398 267.882 538.308 329.182C245.218 390.482 268.218 717.492 44.9575 693.832" stroke="url(#paint65_linear_399_1204)" stroke-width="1.44" stroke-miterlimit="10"/>
<path d="M3315.46 269.312C3301.64 268.142 2697.91 1045.62 2250.91 640.092C1803.91 234.562 1648.02 620.922 1285.32 805.262C922.617 989.602 818.658 261.092 527.028 329.912C235.398 398.732 264.168 721.562 37.4775 697.542" stroke="url(#paint66_linear_399_1204)" stroke-width="1.45" stroke-miterlimit="10"/>
<path d="M3319.03 272.972C3308.03 272.022 2693.27 1057.7 2242.85 644.252C1792.43 230.802 1638.19 632.732 1274.35 816.882C910.507 1001.03 805.907 254.302 515.777 330.642C225.647 406.982 260.127 725.642 29.9974 701.252" stroke="url(#paint67_linear_399_1204)" stroke-width="1.45" stroke-miterlimit="10"/>
<path d="M3322.61 276.622C3314.32 275.912 2688.61 1069.78 2234.79 648.412C1780.97 227.042 1628.36 644.542 1263.36 828.502C898.358 1012.46 793.187 247.502 504.527 331.372C215.867 415.242 256.077 729.702 22.5275 704.952" stroke="url(#paint68_linear_399_1204)" stroke-width="1.46" stroke-miterlimit="10"/>
<path d="M3326.18 280.272C3320.66 279.832 2683.91 1081.83 2226.72 652.572C1769.53 223.312 1618.53 656.352 1252.38 840.122C886.227 1023.89 780.447 240.732 493.287 332.112C206.127 423.492 252.037 733.772 15.0375 708.662" stroke="url(#paint69_linear_399_1204)" stroke-width="1.46" stroke-miterlimit="10"/>
<path d="M3329.76 283.922C3326.99 283.692 2679.26 1093.92 2218.65 656.742C1758.04 219.562 1608.65 668.162 1241.4 851.742C874.147 1035.32 767.717 233.942 482.038 332.832C196.358 431.722 248.037 737.832 7.5575 712.362" stroke="url(#paint70_linear_399_1204)" stroke-width="1.47" stroke-miterlimit="10"/>
<path d="M3333.33 287.582C3333.33 287.582 2674.59 1106.01 2210.59 660.902C1746.59 215.792 1598.91 679.972 1230.42 863.352C861.927 1046.73 754.978 227.152 470.788 333.572C186.598 439.992 243.908 741.912 0.0775146 716.072" stroke="url(#paint71_linear_399_1204)" stroke-width="1.47" stroke-miterlimit="10"/>
</g>
<defs>
<linearGradient id="paint0_linear_399_1204" x1="-286.092" y1="304.241" x2="2276.86" y2="201.723" gradientUnits="userSpaceOnUse">
<stop stop-color="white"/>
<stop offset="1"/>
</linearGradient>
<linearGradient id="paint1_linear_399_1204" x1="-291.441" y1="307.63" x2="2293.71" y2="227.677" gradientUnits="userSpaceOnUse">
<stop stop-color="white"/>
<stop offset="1"/>
</linearGradient>
<linearGradient id="paint2_linear_399_1204" x1="-290.947" y1="311.449" x2="2268.37" y2="229.769" gradientUnits="userSpaceOnUse">
<stop stop-color="white"/>
<stop offset="1"/>
</linearGradient>
<linearGradient id="paint3_linear_399_1204" x1="-278.446" y1="315.061" x2="2302.61" y2="229.971" gradientUnits="userSpaceOnUse">
<stop stop-color="white"/>
<stop offset="1"/>
</linearGradient>
<linearGradient id="paint4_linear_399_1204" x1="-265.607" y1="337.34" x2="2337.71" y2="249.588" gradientUnits="userSpaceOnUse">
<stop stop-color="white"/>
<stop offset="1"/>
</linearGradient>
<linearGradient id="paint5_linear_399_1204" x1="-252.376" y1="341.781" x2="2374.89" y2="250.132" gradientUnits="userSpaceOnUse">
<stop stop-color="white"/>
<stop offset="1"/>
</linearGradient>
<linearGradient id="paint6_linear_399_1204" x1="-239.233" y1="346.025" x2="2412.83" y2="250.167" gradientUnits="userSpaceOnUse">
<stop stop-color="white"/>
<stop offset="1"/>
</linearGradient>
<linearGradient id="paint7_linear_399_1204" x1="-238.235" y1="351.307" x2="2378.53" y2="253.178" gradientUnits="userSpaceOnUse">
<stop stop-color="white"/>
<stop offset="1"/>
</linearGradient>
<linearGradient id="paint8_linear_399_1204" x1="-224.372" y1="358.797" x2="2416.83" y2="255.893" gradientUnits="userSpaceOnUse">
<stop stop-color="white"/>
<stop offset="1"/>
</linearGradient>
<linearGradient id="paint9_linear_399_1204" x1="-210.289" y1="386.735" x2="2457.8" y2="280.011" gradientUnits="userSpaceOnUse">
<stop stop-color="white"/>
<stop offset="1"/>
</linearGradient>
<linearGradient id="paint10_linear_399_1204" x1="-195.725" y1="396.205" x2="2500.49" y2="283.863" gradientUnits="userSpaceOnUse">
<stop stop-color="white"/>
<stop offset="1"/>
</linearGradient>
<linearGradient id="paint11_linear_399_1204" x1="-194.853" y1="402.776" x2="2451.92" y2="287.698" gradientUnits="userSpaceOnUse">
<stop stop-color="white"/>
<stop offset="1"/>
</linearGradient>
<linearGradient id="paint12_linear_399_1204" x1="-180.15" y1="408.751" x2="2494.92" y2="287.157" gradientUnits="userSpaceOnUse">
<stop stop-color="white"/>
<stop offset="1"/>
</linearGradient>
<linearGradient id="paint13_linear_399_1204" x1="-164.959" y1="414.935" x2="2540.28" y2="286.115" gradientUnits="userSpaceOnUse">
<stop stop-color="white"/>
<stop offset="1"/>
</linearGradient>
<linearGradient id="paint14_linear_399_1204" x1="-149.071" y1="445.244" x2="2590.68" y2="310.502" gradientUnits="userSpaceOnUse">
<stop stop-color="white"/>
<stop offset="1"/>
</linearGradient>
<linearGradient id="paint15_linear_399_1204" x1="-133.055" y1="454.079" x2="2644.55" y2="310.41" gradientUnits="userSpaceOnUse">
<stop stop-color="white"/>
<stop offset="1"/>
</linearGradient>
<linearGradient id="paint16_linear_399_1204" x1="-132.594" y1="464.853" x2="2567.45" y2="317.577" gradientUnits="userSpaceOnUse">
<stop stop-color="white"/>
<stop offset="1"/>
</linearGradient>
<linearGradient id="paint17_linear_399_1204" x1="-115.56" y1="478.604" x2="2621.25" y2="320.711" gradientUnits="userSpaceOnUse">
<stop stop-color="white"/>
<stop offset="1"/>
</linearGradient>
<linearGradient id="paint18_linear_399_1204" x1="-97.6431" y1="494.536" x2="2682.61" y2="324.316" gradientUnits="userSpaceOnUse">
<stop stop-color="white"/>
<stop offset="1"/>
</linearGradient>
<linearGradient id="paint19_linear_399_1204" x1="-78.4381" y1="516.132" x2="2756.41" y2="331.25" gradientUnits="userSpaceOnUse">
<stop stop-color="white"/>
<stop offset="1"/>
</linearGradient>
<linearGradient id="paint20_linear_399_1204" x1="-79.5759" y1="570.79" x2="2617.22" y2="386.918" gradientUnits="userSpaceOnUse">
<stop stop-color="white"/>
<stop offset="1"/>
</linearGradient>
<linearGradient id="paint21_linear_399_1204" x1="-58.1386" y1="609.691" x2="2689.74" y2="408.627" gradientUnits="userSpaceOnUse">
<stop stop-color="white"/>
<stop offset="1"/>
</linearGradient>
<linearGradient id="paint22_linear_399_1204" x1="-33.5406" y1="668.596" x2="2782.44" y2="446.282" gradientUnits="userSpaceOnUse">
<stop stop-color="white"/>
<stop offset="1"/>
</linearGradient>
<linearGradient id="paint23_linear_399_1204" x1="-1.5157" y1="762.531" x2="2924.86" y2="511.698" gradientUnits="userSpaceOnUse">
<stop stop-color="white"/>
<stop offset="1"/>
</linearGradient>
<linearGradient id="paint24_linear_399_1204" x1="46.9541" y1="947.764" x2="3173.34" y2="654.665" gradientUnits="userSpaceOnUse">
<stop stop-color="white"/>
<stop offset="1"/>
</linearGradient>
<linearGradient id="paint25_linear_399_1204" x1="72.8925" y1="1529.14" x2="2602.82" y2="1276.15" gradientUnits="userSpaceOnUse">
<stop stop-color="white"/>
<stop offset="1"/>
</linearGradient>
<linearGradient id="paint26_linear_399_1204" x1="1202.48" y1="11475.9" x2="3676.74" y2="11201" gradientUnits="userSpaceOnUse">
<stop stop-color="white"/>
<stop offset="1"/>
</linearGradient>
<linearGradient id="paint27_linear_399_1204" x1="3424.26" y1="2530.73" x2="869.413" y2="2850.09" gradientUnits="userSpaceOnUse">
<stop stop-color="white"/>
<stop offset="1"/>
</linearGradient>
<linearGradient id="paint28_linear_399_1204" x1="3275.98" y1="1371.77" x2="638.138" y2="1622.99" gradientUnits="userSpaceOnUse">
<stop stop-color="white"/>
<stop offset="1"/>
</linearGradient>
<linearGradient id="paint29_linear_399_1204" x1="3785.1" y1="1014.72" x2="703.873" y2="1357.08" gradientUnits="userSpaceOnUse">
<stop stop-color="white"/>
<stop offset="1"/>
</linearGradient>
<linearGradient id="paint30_linear_399_1204" x1="3600.48" y1="841.236" x2="645.742" y2="1235.2" gradientUnits="userSpaceOnUse">
<stop stop-color="white"/>
<stop offset="1"/>
</linearGradient>
<linearGradient id="paint31_linear_399_1204" x1="3495.88" y1="759.195" x2="603.429" y2="1204.19" gradientUnits="userSpaceOnUse">
<stop stop-color="white"/>
<stop offset="1"/>
</linearGradient>
<linearGradient id="paint32_linear_399_1204" x1="3429.27" y1="692.493" x2="605.204" y2="1257.31" gradientUnits="userSpaceOnUse">
<stop stop-color="white"/>
<stop offset="1"/>
</linearGradient>
<linearGradient id="paint33_linear_399_1204" x1="3398.42" y1="645.627" x2="678.649" y2="1422.7" gradientUnits="userSpaceOnUse">
<stop stop-color="white"/>
<stop offset="1"/>
</linearGradient>
<linearGradient id="paint34_linear_399_1204" x1="3617.48" y1="409.979" x2="1000.86" y2="1718.29" gradientUnits="userSpaceOnUse">
<stop stop-color="white"/>
<stop offset="1"/>
</linearGradient>
<linearGradient id="paint35_linear_399_1204" x1="3958.51" y1="372.203" x2="3214.08" y2="1861.08" gradientUnits="userSpaceOnUse">
<stop stop-color="white"/>
<stop offset="1"/>
</linearGradient>
<linearGradient id="paint36_linear_399_1204" x1="2981.37" y1="321.036" x2="2487.9" y2="-665.908" gradientUnits="userSpaceOnUse">
<stop stop-color="white"/>
<stop offset="1"/>
</linearGradient>
<linearGradient id="paint37_linear_399_1204" x1="3107.08" y1="389.854" x2="967.584" y2="-679.893" gradientUnits="userSpaceOnUse">
<stop stop-color="white"/>
<stop offset="1"/>
</linearGradient>
<linearGradient id="paint38_linear_399_1204" x1="3248.37" y1="406.112" x2="596.255" y2="-351.636" gradientUnits="userSpaceOnUse">
<stop stop-color="white"/>
<stop offset="1"/>
</linearGradient>
<linearGradient id="paint39_linear_399_1204" x1="3226.79" y1="413.059" x2="440.479" y2="-144.203" gradientUnits="userSpaceOnUse">
<stop stop-color="white"/>
<stop offset="1"/>
</linearGradient>
<linearGradient id="paint40_linear_399_1204" x1="3198.87" y1="417.462" x2="354.94" y2="-20.0657" gradientUnits="userSpaceOnUse">
<stop stop-color="white"/>
<stop offset="1"/>
</linearGradient>
<linearGradient id="paint41_linear_399_1204" x1="3168.16" y1="420.054" x2="295.291" y2="60.9456" gradientUnits="userSpaceOnUse">
<stop stop-color="white"/>
<stop offset="1"/>
</linearGradient>
<linearGradient id="paint42_linear_399_1204" x1="3138.41" y1="419.087" x2="251.019" y2="98.2651" gradientUnits="userSpaceOnUse">
<stop stop-color="white"/>
<stop offset="1"/>
</linearGradient>
<linearGradient id="paint43_linear_399_1204" x1="3187.29" y1="423.003" x2="209.062" y2="139.362" gradientUnits="userSpaceOnUse">
<stop stop-color="white"/>
<stop offset="1"/>
</linearGradient>
<linearGradient id="paint44_linear_399_1204" x1="3152.62" y1="425.842" x2="169.579" y2="177.256" gradientUnits="userSpaceOnUse">
<stop stop-color="white"/>
<stop offset="1"/>
</linearGradient>
<linearGradient id="paint45_linear_399_1204" x1="3120.19" y1="428.608" x2="133.027" y2="207.336" gradientUnits="userSpaceOnUse">
<stop stop-color="white"/>
<stop offset="1"/>
</linearGradient>
<linearGradient id="paint46_linear_399_1204" x1="3088.29" y1="430.706" x2="98.5922" y2="231.393" gradientUnits="userSpaceOnUse">
<stop stop-color="white"/>
<stop offset="1"/>
</linearGradient>
<linearGradient id="paint47_linear_399_1204" x1="3117.33" y1="436.064" x2="59.9931" y2="244.981" gradientUnits="userSpaceOnUse">
<stop stop-color="white"/>
<stop offset="1"/>
</linearGradient>
<linearGradient id="paint48_linear_399_1204" x1="3084.15" y1="438.77" x2="26.6587" y2="264.056" gradientUnits="userSpaceOnUse">
<stop stop-color="white"/>
<stop offset="1"/>
</linearGradient>
<linearGradient id="paint49_linear_399_1204" x1="3052.64" y1="440.927" x2="-5.82005" y2="279.955" gradientUnits="userSpaceOnUse">
<stop stop-color="white"/>
<stop offset="1"/>
</linearGradient>
<linearGradient id="paint50_linear_399_1204" x1="3022.3" y1="443.504" x2="-37.711" y2="294.236" gradientUnits="userSpaceOnUse">
<stop stop-color="white"/>
<stop offset="1"/>
</linearGradient>
<linearGradient id="paint51_linear_399_1204" x1="3038.18" y1="449.243" x2="-78.8356" y2="307.56" gradientUnits="userSpaceOnUse">
<stop stop-color="white"/>
<stop offset="1"/>
</linearGradient>
<linearGradient id="paint52_linear_399_1204" x1="3006.71" y1="460.977" x2="-110.492" y2="325.447" gradientUnits="userSpaceOnUse">
<stop stop-color="white"/>
<stop offset="1"/>
</linearGradient>
<linearGradient id="paint53_linear_399_1204" x1="2975.87" y1="467.152" x2="-141.904" y2="339.896" gradientUnits="userSpaceOnUse">
<stop stop-color="white"/>
<stop offset="1"/>
</linearGradient>
<linearGradient id="paint54_linear_399_1204" x1="2946.28" y1="472.874" x2="-173.087" y2="352.898" gradientUnits="userSpaceOnUse">
<stop stop-color="white"/>
<stop offset="1"/>
</linearGradient>
<linearGradient id="paint55_linear_399_1204" x1="2910.26" y1="478.846" x2="-212.831" y2="422.063" gradientUnits="userSpaceOnUse">
<stop stop-color="white"/>
<stop offset="1"/>
</linearGradient>
<linearGradient id="paint56_linear_399_1204" x1="2916.23" y1="484.498" x2="-256.507" y2="429.795" gradientUnits="userSpaceOnUse">
<stop stop-color="white"/>
<stop offset="1"/>
</linearGradient>
<linearGradient id="paint57_linear_399_1204" x1="2886.48" y1="490.253" x2="-287.651" y2="438.218" gradientUnits="userSpaceOnUse">
<stop stop-color="white"/>
<stop offset="1"/>
</linearGradient>
<linearGradient id="paint58_linear_399_1204" x1="2856.95" y1="503.098" x2="-318.537" y2="452.694" gradientUnits="userSpaceOnUse">
<stop stop-color="white"/>
<stop offset="1"/>
</linearGradient>
<linearGradient id="paint59_linear_399_1204" x1="2828.39" y1="508.927" x2="-349.471" y2="460.778" gradientUnits="userSpaceOnUse">
<stop stop-color="white"/>
<stop offset="1"/>
</linearGradient>
<linearGradient id="paint60_linear_399_1204" x1="2827.68" y1="514.77" x2="-394.937" y2="468.065" gradientUnits="userSpaceOnUse">
<stop stop-color="white"/>
<stop offset="1"/>
</linearGradient>
<linearGradient id="paint61_linear_399_1204" x1="2798.51" y1="520.358" x2="-426.166" y2="475.571" gradientUnits="userSpaceOnUse">
<stop stop-color="white"/>
<stop offset="1"/>
</linearGradient>
<linearGradient id="paint62_linear_399_1204" x1="2769.66" y1="526.018" x2="-457.162" y2="482.994" gradientUnits="userSpaceOnUse">
<stop stop-color="white"/>
<stop offset="1"/>
</linearGradient>
<linearGradient id="paint63_linear_399_1204" x1="2741.48" y1="539.622" x2="-488.263" y2="497.677" gradientUnits="userSpaceOnUse">
<stop stop-color="white"/>
<stop offset="1"/>
</linearGradient>
<linearGradient id="paint64_linear_399_1204" x1="2713.34" y1="545.348" x2="-519.255" y2="504.941" gradientUnits="userSpaceOnUse">
<stop stop-color="white"/>
<stop offset="1"/>
</linearGradient>
<linearGradient id="paint65_linear_399_1204" x1="2706.94" y1="551.087" x2="-566.912" y2="511.643" gradientUnits="userSpaceOnUse">
<stop stop-color="white"/>
<stop offset="1"/>
</linearGradient>
<linearGradient id="paint66_linear_399_1204" x1="2678.64" y1="556.634" x2="-598.337" y2="518.53" gradientUnits="userSpaceOnUse">
<stop stop-color="white"/>
<stop offset="1"/>
</linearGradient>
<linearGradient id="paint67_linear_399_1204" x1="2650.36" y1="562.226" x2="-629.647" y2="525.372" gradientUnits="userSpaceOnUse">
<stop stop-color="white"/>
<stop offset="1"/>
</linearGradient>
<linearGradient id="paint68_linear_399_1204" x1="2622.67" y1="567.739" x2="-661.084" y2="532.046" gradientUnits="userSpaceOnUse">
<stop stop-color="white"/>
<stop offset="1"/>
</linearGradient>
<linearGradient id="paint69_linear_399_1204" x1="2611.93" y1="582.006" x2="-710.114" y2="546.665" gradientUnits="userSpaceOnUse">
<stop stop-color="white"/>
<stop offset="1"/>
</linearGradient>
<linearGradient id="paint70_linear_399_1204" x1="2583.67" y1="587.681" x2="-741.961" y2="553.396" gradientUnits="userSpaceOnUse">
<stop stop-color="white"/>
<stop offset="1"/>
</linearGradient>
<linearGradient id="paint71_linear_399_1204" x1="2555.13" y1="592.002" x2="-774.452" y2="561.783" gradientUnits="userSpaceOnUse">
<stop stop-color="white"/>
<stop offset="1"/>
</linearGradient>
</defs>
</svg>
