<svg width="30" height="32" viewBox="0 0 30 32" fill="none" xmlns="http://www.w3.org/2000/svg">
<path d="M30 0.302121L29.4355 5.36725C27.4462 5.25832 26.0484 5.72126 25.2419 6.75607C24.4355 7.73642 23.9516 9.07078 23.7903 10.7592C23.6828 12.3931 23.6559 14.1631 23.7097 16.0694H30V32H18.3065V11.9846C18.3065 7.68195 19.4086 4.4686 21.6129 2.34451C23.8172 0.220422 26.6129 -0.460374 30 0.302121ZM11.6935 0.302121L11.129 5.36725C9.13979 5.25832 7.74194 5.72126 6.93548 6.75607C6.12903 7.73642 5.64516 9.07078 5.48387 10.7592C5.37634 12.3931 5.34946 14.1631 5.40323 16.0694H11.6935V32H0V11.9846C0 7.68195 1.10215 4.4686 3.30645 2.34451C5.51075 0.220422 8.30645 -0.460374 11.6935 0.302121Z" fill="#ED3237"/>
</svg>
