<svg width="64" height="64" viewBox="0 0 64 64" fill="none" xmlns="http://www.w3.org/2000/svg">
<circle cx="32" cy="32" r="32" fill="white" fill-opacity="0.04"/>
<path d="M33.0609 28.1107L34.4751 29.5249C37.2088 32.2587 37.2088 36.6908 34.4751 39.4245L34.1216 39.778C31.3879 42.5117 26.9558 42.5117 24.2221 39.778C21.4885 37.0444 21.4885 32.6122 24.2221 29.8785L25.6363 31.2928C23.6837 33.2454 23.6837 36.4112 25.6363 38.3638C27.589 40.3164 30.7547 40.3164 32.7074 38.3638L33.0609 38.0103C35.0135 36.0576 35.0135 32.8918 33.0609 30.9392L31.6467 29.5249L33.0609 28.1107ZM39.7784 34.1212L38.3642 32.707C40.3168 30.7543 40.3168 27.5885 38.3642 25.6359C36.4116 23.6832 33.2458 23.6832 31.2932 25.6359L30.9396 25.9894C28.987 27.942 28.987 31.1079 30.9396 33.0605L32.3538 34.4747L30.9396 35.8889L29.5254 34.4747C26.7918 31.7411 26.7918 27.3089 29.5254 24.5752L29.879 24.2216C32.6126 21.488 37.0448 21.488 39.7784 24.2216C42.5121 26.9553 42.5121 31.3875 39.7784 34.1212Z" fill="white"/>
</svg>
