<svg width="64" height="64" viewBox="0 0 64 64" fill="none" xmlns="http://www.w3.org/2000/svg">
<circle cx="32" cy="32" r="32" fill="white" fill-opacity="0.04"/>
<path d="M27.2526 38.4944L27.9774 38.917C29.1881 39.623 30.5641 40 32 40C36.4183 40 40 36.4183 40 32C40 27.5817 36.4183 24 32 24C27.5817 24 24 27.5817 24 32C24 33.4363 24.3772 34.8128 25.0837 36.0238L25.5061 36.7478L24.8526 39.1494L27.2526 38.4944ZM22.0042 42L23.3561 37.0315C22.494 35.5536 22 33.8345 22 32C22 26.4771 26.4772 22 32 22C37.5228 22 42 26.4771 42 32C42 37.5228 37.5228 42 32 42C30.1661 42 28.4475 41.5064 26.9699 40.6447L22.0042 42ZM28.3913 27.3083C28.5252 27.2989 28.6596 27.2975 28.7936 27.304C28.8478 27.3076 28.9017 27.3138 28.9556 27.3201C29.1149 27.3385 29.29 27.4355 29.3489 27.5689C29.6472 28.2454 29.9367 28.9256 30.2172 29.6096C30.2791 29.7606 30.2418 29.9563 30.124 30.1457C30.0642 30.2428 29.9703 30.379 29.8615 30.5183C29.7484 30.663 29.505 30.9291 29.505 30.9291C29.505 30.9291 29.4064 31.0473 29.4436 31.1944C29.458 31.25 29.5042 31.331 29.5461 31.3991C29.5693 31.4368 29.5908 31.4705 29.6048 31.4938C29.8607 31.9211 30.2047 32.3543 30.6249 32.7616C30.7453 32.8783 30.8621 32.9974 30.9877 33.108C31.456 33.5209 31.9858 33.8583 32.558 34.1082L32.5631 34.1105C32.6476 34.1469 32.691 34.1668 32.8147 34.2193C32.8771 34.2457 32.9409 34.2685 33.0064 34.2858C33.0301 34.292 33.0544 34.2955 33.0788 34.2972C33.2405 34.3069 33.334 34.2032 33.3739 34.1555C34.0974 33.279 34.1636 33.2218 34.1686 33.2222V33.2238C34.2637 33.1236 34.4132 33.0888 34.5466 33.097C34.6075 33.1007 34.6681 33.1124 34.7235 33.1377C35.2553 33.3803 36.1248 33.7587 36.1248 33.7587L36.7063 34.0201C36.8037 34.0671 36.8926 34.1778 36.8969 34.2854C36.8995 34.3523 36.9067 34.4603 36.8828 34.6579C36.8515 34.9166 36.7728 35.2281 36.6946 35.3913C36.6396 35.5058 36.5684 35.6074 36.4856 35.6934C36.3733 35.81 36.2899 35.8808 36.1549 35.9814C36.0727 36.0426 36.0301 36.0714 36.0301 36.0714C35.8912 36.159 35.8129 36.2028 35.6474 36.2909C35.39 36.428 35.1056 36.5068 34.8143 36.5218C34.6286 36.5313 34.4434 36.5447 34.2579 36.5347C34.2497 36.5342 33.6897 36.4482 33.6897 36.4482C32.2678 36.0742 30.9528 35.3736 29.8494 34.402C29.6238 34.2034 29.4145 33.9885 29.201 33.7759C28.3119 32.8908 27.6388 31.9364 27.2307 31.0336C27.0294 30.5884 26.902 30.1116 26.9 29.621C26.8963 29.0141 27.095 28.4232 27.4647 27.9419C27.5376 27.847 27.6068 27.7485 27.7261 27.6359C27.8525 27.5165 27.9329 27.4524 28.0196 27.4081C28.1351 27.349 28.2619 27.3174 28.3913 27.3083Z" fill="white"/>
</svg>
