<svg width="112" height="16" viewBox="0 0 112 16" fill="none" xmlns="http://www.w3.org/2000/svg">
<path d="M8.00044 12.1733L3.29814 14.8054L4.34836 9.51985L0.391968 5.86112L5.74333 5.22663L8.00044 0.333252L10.2575 5.22663L15.6088 5.86112L11.6525 9.51985L12.7027 14.8054L8.00044 12.1733Z" fill="#ED3237"/>
<path d="M32.0004 12.1733L27.2981 14.8054L28.3484 9.51985L24.392 5.86112L29.7433 5.22663L32.0004 0.333252L34.2575 5.22663L39.6088 5.86112L35.6525 9.51985L36.7027 14.8054L32.0004 12.1733Z" fill="#ED3237"/>
<path d="M56.0004 12.1733L51.2981 14.8054L52.3484 9.51985L48.392 5.86112L53.7433 5.22663L56.0004 0.333252L58.2575 5.22663L63.6088 5.86112L59.6525 9.51985L60.7027 14.8054L56.0004 12.1733Z" fill="#ED3237"/>
<path d="M80.0004 12.1733L75.2981 14.8054L76.3484 9.51985L72.392 5.86112L77.7433 5.22663L80.0004 0.333252L82.2575 5.22663L87.6088 5.86112L83.6525 9.51985L84.7027 14.8054L80.0004 12.1733Z" fill="#ED3237"/>
<path d="M104 12.1733L99.2981 14.8054L100.348 9.51985L96.392 5.86112L101.743 5.22663L104 0.333252L106.258 5.22663L111.609 5.86112L107.653 9.51985L108.703 14.8054L104 12.1733Z" fill="#ED3237"/>
</svg>
