<svg width="24" height="24" viewBox="0 0 24 24" fill="none" xmlns="http://www.w3.org/2000/svg">
<path d="M20.0039 6.99976V4.99976H4.00391V18.9998H20.0039V16.9998H12.0039C11.4516 16.9998 11.0039 16.5521 11.0039 15.9998V7.99976C11.0039 7.44747 11.4516 6.99976 12.0039 6.99976H20.0039ZM3.00391 2.99976H21.0039C21.5562 2.99976 22.0039 3.44747 22.0039 3.99976V19.9998C22.0039 20.5521 21.5562 20.9998 21.0039 20.9998H3.00391C2.45163 20.9998 2.00391 20.5521 2.00391 19.9998V3.99976C2.00391 3.44747 2.45163 2.99976 3.00391 2.99976ZM13.0039 8.99976V14.9998H20.0039V8.99976H13.0039ZM15.0039 10.9998H18.0039V12.9998H15.0039V10.9998Z" fill="#ED3237"/>
</svg>
