<svg width="24" height="24" viewBox="0 0 24 24" fill="none" xmlns="http://www.w3.org/2000/svg">
<g clip-path="url(#clip0_181_3795)">
<path d="M5.00391 9.00293C5.5562 9.00293 6.00391 9.45064 6.00391 10.0029C7.63868 10.0029 9.14255 10.5633 10.3339 11.5024L12.5039 11.5029C13.8365 11.5029 15.0338 12.0822 15.8578 13.0026L19.0039 13.0029C20.9962 13.0029 22.7163 14.1682 23.52 15.8543C21.1552 18.9749 17.3258 21.0029 13.0039 21.0029C10.2132 21.0029 7.85369 20.3997 5.94303 19.345C5.8046 19.7285 5.4363 20.0029 5.00391 20.0029H2.00391C1.45163 20.0029 1.00391 19.5552 1.00391 19.0029V10.0029C1.00391 9.45064 1.45163 9.00293 2.00391 9.00293H5.00391ZM6.00492 12.0029L6.00391 17.0249L6.04927 17.0574C7.84309 18.3178 10.182 19.0029 13.0039 19.0029C16.0079 19.0029 18.8025 17.8473 20.839 15.8735L20.9719 15.7399L20.8527 15.6395C20.3887 15.2765 19.8195 15.0513 19.2089 15.0098L19.0039 15.0029H16.8924C16.9654 15.3245 17.0039 15.6592 17.0039 16.0029V17.0029H8.00391V15.0029L14.7939 15.0019L14.7595 14.9234C14.379 14.1298 13.592 13.5682 12.6683 13.5082L12.5039 13.5029L9.5745 13.5028C8.66726 12.5774 7.40315 12.0032 6.00492 12.0029ZM4.00391 11.0029H3.00391V18.0029H4.00391V11.0029ZM18.0039 5.00293C19.6607 5.00293 21.0039 6.34607 21.0039 8.00293C21.0039 9.65978 19.6607 11.0029 18.0039 11.0029C16.347 11.0029 15.0039 9.65978 15.0039 8.00293C15.0039 6.34607 16.347 5.00293 18.0039 5.00293ZM18.0039 7.00293C17.4516 7.00293 17.0039 7.45064 17.0039 8.00293C17.0039 8.55521 17.4516 9.00293 18.0039 9.00293C18.5562 9.00293 19.0039 8.55521 19.0039 8.00293C19.0039 7.45064 18.5562 7.00293 18.0039 7.00293ZM11.0039 2.00293C12.6607 2.00293 14.0039 3.34607 14.0039 5.00293C14.0039 6.65978 12.6607 8.00293 11.0039 8.00293C9.34706 8.00293 8.00391 6.65978 8.00391 5.00293C8.00391 3.34607 9.34706 2.00293 11.0039 2.00293ZM11.0039 4.00293C10.4516 4.00293 10.0039 4.45064 10.0039 5.00293C10.0039 5.55521 10.4516 6.00293 11.0039 6.00293C11.5562 6.00293 12.0039 5.55521 12.0039 5.00293C12.0039 4.45064 11.5562 4.00293 11.0039 4.00293Z" fill="#ED3237"/>
</g>
<defs>
<clipPath id="clip0_181_3795">
<rect width="24" height="24" fill="white"/>
</clipPath>
</defs>
</svg>
